<svg id="l_1" data-name="l 1" xmlns="http://www.w3.org/2000/svg" viewBox="150 0 2125 676.17"><defs><style>.cls-1{fill:#c04e1d;}.cls-2{fill:#9d2f24;}.cls-3{fill:#952d23;}.cls-4{fill:#f0cdbc;}.cls-5{opacity:0.7;}.cls-6{opacity:0.5;}.cls-7{opacity:0.2;}.cls-8{opacity:0.3;}.cls-9{fill:#f0cebc;}</style></defs><title>source</title><path class="cls-1" d="M994.39,425H961.16c-6.33,0-12.66-.09-19,0-3.39,0-4.4-1.15-3.58-4.55,3.69-15.35,7.15-30.75,10.8-46.11,2.14-9,2.23-9,11.74-9q57-.09,113.93-.11c6,0,6.08.31,4.79,6.42q-13.06,61.62-26,123.27c-2.62,12.52-4.6,25.17-7.53,37.61-.63,2.65-3.69,5.76-6.33,6.73-35.43,13-71.91,21-109.85,18.82-34.79-2-66.33-12.21-89.64-40.23-10.84-13-17.67-28.07-21.55-44.4-5.14-21.66-4.69-43.71-1.71-65.47,3.54-25.8,12.33-50.13,24.47-73.26,22.61-43.12,56.84-72.73,103-88.32,19.72-6.67,40-10.64,61-10.78,19.91-.13,39.64.58,58.9,5.83,9.59,2.62,18.9,6.24,28.35,9.38,2.81.93,3.15,2.59,2.5,5.39-4.39,19.08-8.61,38.2-12.81,57.32-1,4.67-2.6,5.57-6.87,3.36a146.46,146.46,0,0,0-54.13-16.28c-45.9-4.24-85,13.44-108.06,55.33-14.19,25.8-22.16,53.41-20.66,83,.74,14.8,4.45,29,16.54,39.31,8.78,7.47,19.51,10.58,30.55,10.65,12.38.09,24.78-1.73,37.17-2.76,3.23-.26,4.72-1.9,5.4-5.28C986.26,462.49,990.28,444.19,994.39,425Z"/><path class="cls-1" d="M733.19,235.77c26.29-1,51,4,75.37,11.06,3.84,1.11,4.93,2.61,3.81,7.15-4.39,17.89-8.07,36-11.87,54-1,4.51-2.52,5.34-7.48,3.87-11-3.25-21.85-7.14-33-9.2-23.65-4.37-47.46-4.66-70.64,2.76a55.25,55.25,0,0,0-18.44,10.37c-9.45,8-9.1,20.2,1.23,27.23,9.11,6.19,19.35,10.94,29.56,15.24,20.05,8.46,40.56,15.88,59,27.77,16.12,10.42,27.5,24.81,30.12,43.92,2.43,17.65,1.25,35.43-5.56,52.49-13,32.63-37.49,52.58-70,63.48-34.75,11.64-70.42,14.49-106.85,10.74-23.59-2.43-46.48-7.61-69.07-14.5-5.73-1.75-6.72-3.63-5.29-9.55l11.79-48.93c.07-.33.14-.65.22-1,2.91-12.52,3-12.64,15.09-8.2,31.82,11.63,64.48,17.5,98.4,14.09,12.78-1.29,25.26-4.05,36.08-11.78,12.39-8.86,13.69-26,1.12-34.55-10.31-7-22.1-12.05-33.6-17.16-18.2-8.08-37.24-14.4-53.79-25.89-20.77-14.42-32.15-33.89-30.43-59.61,1.36-20.18,9.45-37.83,22.2-53.49,17.65-21.67,41.1-33.93,67.37-41.38C689.8,238.65,711.54,234.72,733.19,235.77Z"/><path class="cls-1" d="M1856,350.57c10-9,21.18-16.15,34.33-18.65,19.56-3.71,39.23-5.07,56.43,8.08,9.76,7.47,15.13,17.65,17.58,29.74,3.31,16.42.33,32.5-1.7,48.63-2.62,20.76-5.71,41.46-8.68,62.18-1.58,11-3.36,22-5,33a74,74,0,0,0-.75,7.42c-.26,5.31-3,8.34-8.36,8.38q-23.47.14-47,0c-5.32,0-8.27-4.12-7.46-9.43,5.16-33.66,10.42-67.3,15.28-101,1-6.69.59-13.62.39-20.43-.13-4.27-2.76-6.84-7.09-7.78-12.25-2.66-26.26,5.34-29.28,18.2-3,12.57-4.49,25.49-6.37,38.3-3.6,24.49-7,49-10.51,73.51-.91,6.33-3.65,8.65-10,8.66q-22.48,0-45,0c-7.15,0-9.71-2.82-8.72-9.66,3.45-23.84,7-47.66,10.4-71.51,1.81-12.65,3.39-25.35,5-38,.24-1.81.29-3.65.35-5.47.39-11.28-3.64-16.62-17.84-13.9-10.44,2-17.22,10.31-18.79,20.75-2.71,18.07-5.78,36.09-8.54,54.16q-4,26.35-7.72,52.75c-1.15,8.19-4.18,10.95-12.39,10.93-14.16,0-28.31,0-42.47,0-6.85,0-9.67-2.85-8.7-9.43,4-26.8,8.15-53.57,12.19-80.36q4.07-26.85,8-53.73c2.15-15,4.13-30,6.2-44.94.73-5.23,4-8.41,9.4-8.45q22-.17,44,0c5.55.05,7.88,3.21,8.06,10.4C1801.07,326.53,1829.63,323.54,1856,350.57Z"/><path class="cls-1" d="M1199.57,486.24h5.68l112.4.07c7.75,0,9.07,1.64,7.52,9.15-3.48,16.76-7,33.51-10.25,50.33-.76,3.93-2.44,5.23-6.3,5.22q-97.66-.07-195.33.08c-4.4,0-5.44-1.27-4.49-5.59q10.07-45.75,19.79-91.58c8-37.69,15.8-75.43,23.72-113.14,6.85-32.66,13.77-65.3,20.55-98,.67-3.21,2.07-4.37,5.37-4.36,22.81.09,45.62,0,68.43,0,5.49,0,6.87,2.12,5.68,7.5-7.31,33.07-14.47,66.18-21.8,99.25q-15.26,68.82-30.65,137.62A28.58,28.58,0,0,0,1199.57,486.24Z"/><path class="cls-1" d="M1557.74,536.38c-20.74,1.09-39.2-3.55-55.51-15.08-15.79-11.16-26-26.37-30.59-45.25-9-37.16-1.57-71.31,20-102.3,17.56-25.23,42.28-40.5,72.16-47.18,20.78-4.65,41.72-4.61,62.08,1.92,26.68,8.56,48,29.8,52.5,60.19,5.58,37.41-3.86,71.32-25.53,101.72-14.94,21-35.73,34.43-60.46,41.66C1580.81,535.44,1569,537.38,1557.74,536.38Zm-19.58-92.81c0,2-.05,4,0,6,.51,18.24,14.39,28.72,32.23,24.61a41.78,41.78,0,0,0,27.47-19.92c9.84-16.32,14.71-33.72,10.52-52.83-1.69-7.74-6.15-13.13-14.16-15-14.08-3.36-26.64,0-36.8,10C1544.36,409.2,1538.66,425.43,1538.16,443.57Z"/><path class="cls-1" d="M2059.14,343.31c19.35-13.88,41.06-16.18,63.38-11.6,16,3.28,27.94,14.86,32.13,34.3,3.38,15.65,1,31.13-1.17,46.62q-2.68,19.47-5.49,38.94c-1.46,10.2-3,20.37-4.41,30.57-1.7,12.5-3.42,25-4.85,37.54-.8,7-3.42,9.73-10.47,9.72q-21.48,0-43,0c-8.76,0-11.39-2.93-10.11-11.62,1.66-11.34,3.55-22.65,5.18-34,3.34-23.33,6.65-46.66,9.77-70a70.12,70.12,0,0,0,.22-13.44c-.35-6.05-3.3-8.93-9.26-9.81-14.6-2.16-26.56,6-29.73,20.87-1.94,9.09-3.13,18.35-4.43,27.56-2.66,18.92-5.13,37.87-7.74,56.79q-1.74,12.6-3.7,25.15c-.88,5.53-4.28,8.44-9.88,8.47q-22.48.09-45,0c-5.74,0-8.57-3.28-7.82-8.87,3-22.72,6.17-45.43,9.19-68.16,2.55-19.27,4.87-38.58,7.52-57.84,2.53-18.27,5.39-36.49,8-54.75.69-4.78,3.62-7.07,8.1-7.11q21.72-.21,43.46,0C2055.67,332.68,2058.37,335.72,2059.14,343.31Z"/><path class="cls-2" d="M324,403.1c13.67,21.76,20.91,44.79,23,70.21h5.45q18,0,36,0c9.22,0,15,5.69,15.05,14.75,0,18.31-.32,36.63.12,54.92.21,8.6-6.43,15.51-15.54,15.38-32.31-.43-64.63-.14-96.95-.14-9,0-14.83-6.05-14.82-15.08q0-27.45,0-54.92a15,15,0,0,1,14.88-14.91c13.81-.06,27.62,0,41.33,0,6-23.58-23.8-92.48-62-100.4-3,6.32-5.3,12.91-8.92,18.7C250.08,410,233,418.76,211.5,417.4c-21.2-1.33-37.4-11.72-46.6-31-9.85-20.67-6.77-40.69,7.15-58.41,14.69-18.71,34.4-25,57.46-19.05,22.64,5.85,38,24.16,40.7,47.05a6.42,6.42,0,0,0,3.45,4.4,90.72,90.72,0,0,1,39,27.65,7.94,7.94,0,0,0,5.48,2.42c24.41,0,46.94-6.32,67.05-20.51q33-23.32,42.18-59.22c-7.29-3.18-15-5.54-21.63-9.61-15.43-9.45-24.22-23.32-24.41-41.85-.23-23.43,9.9-41,31.48-50.31,19.3-8.3,38.88-7.34,56.16,5.68,16,12.06,22.85,28.43,21.18,48.79-2,23.95-22,42.4-46.08,45.86-3,.43-4.11,1.36-4.88,4.27-11,41.57-38.77,67.56-78.14,81.88-10.47,3.81-22,4.78-33,7C327,402.68,325.84,402.81,324,403.1Zm-66-41.33c.63-24.55-20.41-43.55-43.37-42.9-24.11.68-43.42,19.51-43.34,44.76.07,23.36,20.38,42,43.77,41.79C237.92,405.2,259.32,385.89,258,361.77ZM393.87,257.58c-1.43,22.74,19.41,42.09,44.73,40.46,20.19-1.29,40.21-16.16,40.17-40.74,0-22.13-18.39-40.24-40.84-41.25C413.55,215,392,235.59,393.87,257.58ZM289,545.44c2.79.12,5.1.32,7.41.32,10.82,0,21.63,0,32.44,0l56.89,0c2.53,0,5.15.29,5.13-3.58-.05-18.59,0-37.18,0-56.26H289Z"/><path class="cls-1" d="M1390.4,387.2c17.63,0,35.27,0,52.91,0,6.69,0,8.37,2.46,6.78,9-3.65,15.15-7.35,30.3-10.66,45.53-1.09,5-4,6.32-8.48,6.31q-39.18-.09-78.37,0c-8.32,0-16.64.06-25,0-5.72,0-7.66-2.7-6.47-8.16,3.45-15.89,6.93-31.78,10-47.75.73-3.78,2.15-5,5.81-5C1354.79,387.27,1372.59,387.21,1390.4,387.2Z"/><path class="cls-3" d="M942.53,562.88q-6.37,0-12.67-.36c-41-2.34-71.37-16-92.85-41.84-10.66-12.81-18.22-28.37-22.46-46.24-4.7-19.75-5.28-41.71-1.8-67.13,3.4-24.76,11.55-49.21,24.94-74.73,23.19-44.22,58.68-74.67,105.49-90.49,21.53-7.28,42-10.89,62.46-11,19.34-.13,40,.51,60.11,6,6.61,1.81,13.12,4.09,19.41,6.29,3,1.06,6.12,2.15,9.17,3.16,3.36,1.11,7,3.87,5.48,10.67-4.4,19.09-8.57,38-12.81,57.27-.59,2.68-1.66,5.95-4.76,7.4s-6.19.23-8.56-1a142.86,142.86,0,0,0-52.49-15.8c-46.4-4.29-82.26,14.05-103.69,53-14.91,27.1-21.49,53.48-20.12,80.64.84,16.66,5.6,28.14,15,36.11,7.38,6.28,16.69,9.51,27.66,9.58a240,240,0,0,0,25.68-1.68c3.63-.37,7.38-.75,11.1-1.06a2,2,0,0,0,.84-.18,3.6,3.6,0,0,0,.51-1.51c2.76-13.66,5.64-27.06,8.69-41.24.66-3.07,1.33-6.16,2-9.27H961.16l-5.94,0c-4.27,0-8.67,0-13,0-1.18,0-4.76.07-7-2.66s-1.36-6.29-1.08-7.44c2-8.32,4-16.8,5.87-25q2.45-10.55,4.93-21.09c2.61-10.95,4.57-12.47,16.12-12.48q57-.09,113.93-.11c3.35,0,6.51,0,8.57,2.53s1.43,5.54.62,9.32l-1.92,9.08c-7.93,37.42-16.14,76.11-24.1,114.18-1,5-2,10.09-2.94,15-1.4,7.45-2.85,15.15-4.62,22.7-1.06,4.48-5.49,8.56-9.16,9.91C1006.09,556.48,973.57,562.88,942.53,562.88Zm67.17-322.82h-4c-19.53.13-39,3.58-59.63,10.54-44.55,15.06-78.33,44.05-100.41,86.15-12.89,24.58-20.74,48.06-24,71.78-3.33,24.29-2.8,45.17,1.63,63.82,4,16.74,10.73,30.66,20.63,42.56,20.07,24.13,47.54,36.4,86.44,38.62,33.61,1.92,68.94-4.15,108-18.55a7.36,7.36,0,0,0,3.51-3.54c1.73-7.35,3.16-15,4.54-22.29.94-5,1.91-10.14,3-15.21,8-38.09,16.17-76.78,24.1-114.2l1.93-9.08c0-.27.13-.62.2-1h-.59q-57,0-113.92.11a37.3,37.3,0,0,0-5.87.24,35.31,35.31,0,0,0-1.5,5.33q-2.5,10.5-4.92,21c-1.83,7.89-3.72,16-5.65,24.06,4,0,8.11,0,12,0l5.91,0H1000l-1.16,5.44q-1.59,7.44-3.16,14.72c-3,14.15-5.92,27.53-8.66,41.13-1.11,5.47-4.29,8.45-9.45,8.88-3.62.3-7.33.68-10.92,1A246.57,246.57,0,0,1,940,493.4c-13-.09-24.52-4.14-33.43-11.72-15-12.74-17.51-30.37-18.13-42.51-1.43-28.48,5.7-57.22,21.22-85.43,23-41.76,62.89-62.23,112.41-57.65a151.52,151.52,0,0,1,55.79,16.77l.29.14c0-.14.07-.3.11-.48,4.25-19.31,8.42-38.23,12.82-57.36,0-.09,0-.17.06-.25-3-1-6-2-8.9-3.06-6.15-2.16-12.51-4.39-18.81-6.1C1045.69,240.92,1027.23,240.06,1009.7,240.06Zm82.15,15.13Z"/><path class="cls-3" d="M638.15,562.72a295.94,295.94,0,0,1-30.26-1.6c-22.18-2.28-45-7.09-69.92-14.68-8-2.44-10.35-6.62-8.36-14.9q4.71-19.5,9.4-39l2.6-10.87c1.71-7.37,2.66-11.42,6.35-13.42s7.61-.58,14.68,2c34,12.42,65.5,16.95,96.4,13.84,10.07-1,23-3.18,33.91-11A18.3,18.3,0,0,0,701,458.31,14.9,14.9,0,0,0,694.15,446c-9.2-6.29-19.94-11-30.33-15.63l-2.55-1.13c-4.57-2-9.3-4-13.87-5.89-13.72-5.69-27.92-11.57-40.67-20.42-23.21-16.12-34.09-37.52-32.35-63.61,1.34-19.92,9.14-38.77,23.2-56C614.07,263,636.84,249,667.21,240.38c25.23-7.16,46.21-10,66-9.11,29.6-1.05,56.47,5.45,76.59,11.24,6.39,1.84,8.59,5.82,6.94,12.55-3.78,15.4-7.1,31.23-10.31,46.54l-1.53,7.3c-.51,2.41-1.44,5.39-4.19,7s-6.13,1.06-9,.22-5.67-1.72-8.5-2.6a211.16,211.16,0,0,0-24.09-6.49c-25.72-4.74-48.11-3.89-68.45,2.62a51.06,51.06,0,0,0-16.9,9.52c-3.56,3-5.41,6.76-5.21,10.51s2.35,7,6.06,9.57c9.16,6.23,19.69,11,28.77,14.82,3.71,1.56,7.44,3.09,11.17,4.62,16.3,6.69,33.16,13.61,48.49,23.51,18.69,12.08,29.51,27.92,32.14,47.08,2.72,19.82.76,38.25-5.84,54.78-12.76,31.94-37.23,54.17-72.75,66.07A244,244,0,0,1,638.15,562.72Zm-100.24-26a9.53,9.53,0,0,0,2.69,1.1c24.31,7.42,46.62,12.11,68.21,14.34,37.84,3.89,72.17.45,105-10.54,33.36-11.18,55.36-31.09,67.25-60.88,6-15.06,7.79-32,5.28-50.21-2.25-16.45-11.71-30.16-28.1-40.75-14.63-9.45-31.1-16.21-47-22.75-3.75-1.54-7.51-3.08-11.24-4.65-9.5-4-20.53-9-30.34-15.67-6.09-4.14-9.64-10-10-16.53s2.71-13,8.38-17.85a60.1,60.1,0,0,1,20-11.23c21.79-7,45.61-7.92,72.82-2.9A217.49,217.49,0,0,1,785.92,305c2.79.87,5.58,1.74,8.38,2.56a14.44,14.44,0,0,0,1.58.4c.07-.22.14-.51.22-.88l1.53-7.29c3.22-15.38,6.56-31.29,10.37-46.84a10.36,10.36,0,0,0,.27-1.43,7.81,7.81,0,0,0-.95-.32c-29-8.34-51.8-11.7-74-10.89H733c-18.84-.92-39,1.86-63.3,8.77-28.53,8.09-49.83,21.14-65.11,39.89-13,16-20,32.67-21.2,50.95-1.54,23,7.78,41.23,28.51,55.62,12,8.3,25.08,13.74,39,19.5,4.62,1.92,9.4,3.9,14.07,6l2.54,1.13c10.76,4.76,21.88,9.68,31.77,16.43A24,24,0,0,1,710,458.21c.09,8.57-4.33,16.88-11.82,22.24-12.62,9-27.07,11.47-38.25,12.59-32.28,3.25-65.12-1.44-100.39-14.34a60,60,0,0,0-7.2-2.34,59.2,59.2,0,0,0-2,7.34l-.08.37-.15.64-2.39,9.94q-4.69,19.5-9.4,39A10.68,10.68,0,0,0,537.91,536.73Z"/><path class="cls-3" d="M1915.86,534c-7.89,0-15.52,0-23-.09a11.91,11.91,0,0,1-9.21-4.06,13,13,0,0,1-2.66-10.55q1.56-10.18,3.13-20.38c4.07-26.4,8.27-53.7,12.15-80.58.8-5.54.6-11.53.42-17.32l-.08-2.33c0-1.34-.35-2.83-3.54-3.52-10.19-2.22-21.61,4.85-24,14.82s-3.79,20.29-5.21,30.33c-.36,2.53-.72,5.07-1.09,7.6-2.17,14.79-4.3,29.85-6.36,44.4q-2.07,14.57-4.14,29.1c-1.23,8.53-5.81,12.51-14.42,12.52-17.11,0-31.41,0-45,0-5.06,0-8.62-1.29-10.88-3.92s-3-6.13-2.28-10.88q2.14-14.92,4.35-29.84c2-13.65,4.07-27.77,6.05-41.66,1.42-9.93,2.72-20.06,4-29.86l1.05-8.12c.19-1.48.24-3.05.3-4.71v-.34c.16-4.52-.5-7.44-2-8.69-1.65-1.41-5.29-1.63-10.54-.63-8.14,1.56-13.82,7.91-15.18,17-1.46,9.71-3,19.55-4.57,29.07-1.32,8.23-2.69,16.74-4,25.11-2.35,15.39-4.73,31.64-7.71,52.7-1.47,10.37-6.5,14.8-16.8,14.8h-42.53c-5,0-8.53-1.31-10.83-4s-3-6.12-2.31-10.61c2.44-16.48,5-33.21,7.48-49.4q2.37-15.48,4.72-31c2.4-15.94,5.23-34.79,8-53.71,1.38-9.64,2.72-19.46,4-29q1.08-8,2.18-15.95c1-7.54,6.35-12.27,13.83-12.33,14.46-.11,29.28-.1,44,0,5.92.05,9.76,2.74,11.48,8,31.87-15.71,58.59-12.94,81.39,8.44,11.06-9.25,22-14.81,33.32-17,20.1-3.82,41.29-5.38,60,8.93,10.11,7.73,16.41,18.34,19.26,32.42,3,15,1.07,29.63-.82,43.77-.28,2.1-.56,4.21-.83,6.31-2.09,16.64-4.53,33.5-6.89,49.8q-.9,6.22-1.79,12.46c-.93,6.49-2,13.07-2.93,19.44-.7,4.53-1.4,9.06-2.07,13.6-.36,2.41-.6,4.76-.71,7-.38,7.88-5.17,12.61-12.82,12.66C1931.56,533.92,1923.59,534,1915.86,534Zm-26.64-148.24a27.41,27.41,0,0,1,5.75.61c6.57,1.43,10.44,5.82,10.63,12.05l.07,2.31c.2,6.18.41,12.57-.5,18.89-3.89,26.93-8.09,54.25-12.16,80.67q-1.58,10.18-3.13,20.37a4.29,4.29,0,0,0,.61,3.36,3.08,3.08,0,0,0,2.43.89c14.77.11,30.11.11,46.91,0,2.44,0,3.72-.65,3.88-4.1.13-2.51.39-5.16.79-7.86q1-6.84,2.08-13.65c1-6.34,2-12.9,2.92-19.35.59-4.16,1.2-8.31,1.8-12.47,2.35-16.26,4.78-33.08,6.86-49.64.27-2.12.56-4.25.84-6.37,1.88-14,3.65-27.27.92-40.79-2.4-11.86-7.6-20.71-15.91-27.06-15-11.48-32-11.2-52.85-7.24-10.9,2.07-21.12,7.66-32.17,17.58l-3.21,2.89-3-3.1c-22.16-22.72-46.61-24.84-79.28-6.86l-6.48,3.56-.19-7.39c-.15-6-1.59-6-3.6-6-14.71-.13-29.47-.14-43.89,0-3,0-4.55,1.43-5,4.57q-1.11,8-2.18,15.93c-1.3,9.51-2.64,19.35-4,29-2.72,18.94-5.55,37.81-8,53.77q-2.34,15.5-4.72,31c-2.47,16.18-5,32.9-7.47,49.36-.29,2-.07,3.07.23,3.42s1.59.84,4,.85h42.55c5.83,0,7-1.07,7.86-7.06,3-21.09,5.37-37.38,7.72-52.8,1.29-8.41,2.66-16.94,4-25.18,1.53-9.5,3.11-19.31,4.56-29,1.93-12.84,10.51-22.23,22.39-24.5,8.37-1.6,14.12-.76,18.09,2.63,4.91,4.21,5.26,11.06,5.1,15.84v.33c-.06,1.8-.13,3.66-.38,5.57l-1,8.11c-1.26,9.83-2.57,20-4,30-2,13.91-4,28-6.06,41.7q-2.18,14.89-4.35,29.82c-.42,2.91.13,3.64.19,3.71s.78.79,4.09.8c13.57,0,27.85,0,45,0,4.11,0,4.93-.72,5.52-4.8q2.08-14.54,4.13-29.08c2.07-14.57,4.2-29.63,6.38-44.44.37-2.52.72-5,1.08-7.56,1.45-10.24,2.94-20.83,5.36-31.12C1863.37,395,1876.07,385.71,1889.22,385.71Z"/><path class="cls-3" d="M1113.25,555.59c-2.54,0-5.69-.33-7.72-2.85s-1.68-5.72-1.13-8.2c6.78-30.78,13.44-61.58,19.79-91.55,5.06-23.9,10.14-48.22,15-71.74q4.32-20.7,8.66-41.4,3.43-16.37,6.89-32.74c4.5-21.37,9.15-43.47,13.67-65.21,1.09-5.27,4.36-7.94,9.72-7.94h.06c14.1.06,28.44,0,42.31,0l26.12,0c2.62,0,6.38.35,8.76,3.32s1.9,6.95,1.31,9.66q-5.09,23-10.1,46c-3.82,17.47-7.77,35.52-11.71,53.28q-9.51,43-19.12,85.9-5.55,24.82-11.07,49.64l31,0,82,.05c3.85,0,8.17.27,10.75,3.43s1.95,7.4,1.17,11.13l-1.78,8.57c-2.84,13.66-5.79,27.78-8.46,41.7-1.14,6-4.64,8.87-10.7,8.87h0c-70.68,0-134.57,0-195.31.08Zm-.09-9h.12c60.76-.11,124.65-.13,195.34-.08h0a5.14,5.14,0,0,0,1.44-.14,5.34,5.34,0,0,0,.43-1.43c2.68-14,5.63-28.14,8.48-41.83l1.78-8.57a18,18,0,0,0,.48-3.49,18.8,18.8,0,0,0-3.59-.24l-82-.05-41,0,.43-4.89c0-.48.06-.89.09-1.27a16.32,16.32,0,0,1,.31-2.72q5.76-25.86,11.53-51.72,9.59-42.94,19.13-85.89c3.93-17.74,7.88-35.79,11.7-53.25q5-23,10.1-46a11.21,11.21,0,0,0,.28-1.93,11.33,11.33,0,0,0-1.57-.11l-26.1,0c-13.88,0-28.23,0-42.35,0a4.53,4.53,0,0,0-.75,0,6.43,6.43,0,0,0-.19.73c-4.52,21.76-9.17,43.86-13.67,65.24q-3.45,16.36-6.89,32.73-4.35,20.7-8.66,41.39c-4.91,23.52-10,47.85-15.06,71.77-6.35,30-13,60.81-19.8,91.61Z"/><path class="cls-3" d="M1563.88,541.14q-3.17,0-6.22-.25c-22.31,1.11-41.3-4.09-58-15.92a80.17,80.17,0,0,1-32.36-47.86c-9.1-37.49-2.15-73.13,20.66-105.93,17.64-25.35,42.83-41.84,74.87-49,22.72-5.08,44.4-4.39,64.44,2,30.28,9.72,51.06,33.57,55.57,63.81,5.57,37.34-3.28,72.67-26.31,105-14.92,20.93-36.07,35.52-62.87,43.36C1582.72,539.57,1572.92,541.14,1563.88,541.14Zm-6.06-9.27.32,0c9.67.87,20.46-.49,33-4.15,24.8-7.25,44.34-20.69,58.06-39.95,21.63-30.36,30-63.48,24.74-98.44-4-26.78-22.47-47.92-49.42-56.57-18.49-5.94-38.58-6.55-59.72-1.82-29.78,6.65-53.14,21.91-69.45,45.36C1474,406.91,1467.55,440.1,1476,475a71.35,71.35,0,0,0,28.81,42.63c15.09,10.67,32.32,15.33,52.67,14.26Zm5-52.31a29,29,0,0,1-18-5.86c-7-5.38-10.93-13.91-11.21-24,0-1.45,0-2.88,0-4.26,0-.62,0-1.24,0-1.86v-.12c.56-20.5,7.5-37.42,20.61-50.28,11.22-11,25.4-14.88,41-11.17,9.3,2.22,15.36,8.6,17.52,18.46,4.08,18.64.46,37-11.06,56.12a46.34,46.34,0,0,1-30.32,22A38.07,38.07,0,0,1,1562.86,479.56Zm-20.2-35.92c0,.62,0,1.24,0,1.86,0,1.36,0,2.65,0,3.94.2,7.35,2.95,13.44,7.73,17.14s11.62,4.9,19,3.2A37.12,37.12,0,0,0,1594,451.93c10.28-17.06,13.54-33.26,10-49.55-1.43-6.51-4.86-10.21-10.81-11.62-12.61-3-23.58,0-32.61,8.83C1549.2,410.76,1543.17,425.57,1542.66,443.64Z"/><path class="cls-3" d="M2085.27,533.9c-4,0-9.05-.47-12.21-4.13s-2.91-8.68-2.32-12.65c.77-5.25,1.6-10.58,2.4-15.73.93-6,1.9-12.16,2.77-18.24,3-21.13,6.53-45.71,9.77-70a67.58,67.58,0,0,0,.19-12.59c-.22-3.77-1.44-5-5.43-5.62-12.35-1.82-22,5-24.67,17.35-1.66,7.81-2.8,15.95-3.89,23.82l-.48,3.44c-1.55,11-3.06,22.23-4.53,33.08q-1.59,11.85-3.21,23.7c-1.27,9.21-2.49,17.47-3.72,25.24s-6.44,12.23-14.3,12.26c-15.8.06-30.52.06-45,0-5.25,0-8.19-2.14-9.73-3.91s-3.21-4.93-2.53-10q2-14.79,4-29.55,2.61-19.31,5.19-38.61c1.06-8,2.07-15.9,3.08-23.86,1.42-11.15,2.89-22.67,4.46-34,1.53-11.08,3.21-22.31,4.83-33.17q1.62-10.8,3.2-21.61c1-6.8,5.66-10.9,12.51-11,14.45-.14,29.1-.14,43.54,0,7.59.07,11.15,3.66,12.89,7.89,17.59-10.52,38.19-13.45,61.35-8.71,18.55,3.8,31.2,17.21,35.63,37.77,3.39,15.71,1.25,31.14-.82,46.05l-.29,2.12c-1.71,12.45-3.52,25.09-5.26,37.32l-.24,1.65q-.84,5.94-1.72,11.87c-.9,6.12-1.83,12.45-2.68,18.67l-.23,1.64c-1.59,11.74-3.25,23.86-4.61,35.8-1.07,9.48-5.68,13.71-14.91,13.71h0q-21.48,0-43,0Zm-8.81-148.24a35.92,35.92,0,0,1,5.3.4c8.21,1.21,12.62,5.92,13.09,14a75.37,75.37,0,0,1-.25,14.31c-3.25,24.31-6.75,48.91-9.78,70.07-.88,6.13-1.85,12.34-2.79,18.35-.8,5.13-1.63,10.44-2.39,15.65-.6,4.12,0,5.21.22,5.45s1.21,1,5.42,1h0q21.48,0,43,0h.05c4.29,0,5.35-.55,5.94-5.73,1.37-12,3-24.21,4.64-36l.22-1.65c.85-6.26,1.79-12.62,2.69-18.76q.87-5.91,1.72-11.83l.24-1.65c1.74-12.22,3.54-24.85,5.25-37.28l.3-2.12c2-14.8,4-28.77.93-42.93-3.63-16.85-13.8-27.81-28.64-30.85-23.4-4.79-43-1.24-59.85,10.86l-6.32,4.53-.78-7.74c-.64-6.31-2.26-6.61-5.57-6.64-14.38-.14-29-.15-43.37,0-2.41,0-3.34.85-3.69,3.26q-1.56,10.83-3.2,21.65c-1.62,10.84-3.3,22-4.82,33.07-1.56,11.28-3,22.78-4.44,33.91q-1.52,12-3.08,23.9-2.57,19.32-5.2,38.64-2,14.76-4,29.53a4,4,0,0,0,.4,2.95,4.14,4.14,0,0,0,3,.82c14.46.07,29.15.07,44.92,0,3.39,0,4.92-1.33,5.45-4.67,1.22-7.71,2.43-15.91,3.69-25.06q1.63-11.83,3.22-23.67c1.46-10.86,3-22.09,4.53-33.14l.48-3.42c1.11-8,2.27-16.33,4-24.45C2050.23,395.12,2061.77,385.66,2076.46,385.66Z"/><path class="cls-3" d="M1431.16,452.58H1431c-21-.05-42.36-.05-63,0h-15.37c-3.12,0-6.21,0-9.32,0-5.22,0-10.44,0-15.66,0-4.21,0-7.34-1.26-9.28-3.68s-2.47-5.77-1.57-9.93l.9-4.13c3.09-14.25,6.29-29,9.1-43.52,1.14-5.93,4.37-8.66,10.26-8.64,13.51.08,27.26.07,40.55,0h12.83v0h12.14q20.4,0,40.79,0c3,0,7.37.39,10,3.69s2,7.55,1.2,10.89l-1.13,4.67c-3.22,13.34-6.55,27.15-9.51,40.77C1441.74,452.35,1434,452.58,1431.16,452.58Zm-49-9c16.16,0,32.6,0,48.83,0,3.32,0,3.6-.61,4.06-2.77,3-13.71,6.33-27.57,9.56-41l1.13-4.66a10.36,10.36,0,0,0,.41-3.16,9.13,9.13,0,0,0-2.83-.31q-20.38,0-40.76,0h-25c-13.31,0-27.07,0-40.62,0a6.66,6.66,0,0,0-1,.06,7.53,7.53,0,0,0-.34,1.28c-2.83,14.64-6,29.43-9.15,43.73l-.9,4.13a6,6,0,0,0-.18,2.37,5.74,5.74,0,0,0,2.29.33c5.2,0,10.39,0,15.59,0l9.25,0h29.65Z"/><path class="cls-4" d="M258,361.77c1.32,24.12-20.08,43.43-42.94,43.65-23.39.23-43.7-18.43-43.77-41.79-.08-25.25,19.23-44.08,43.34-44.76C237.59,318.22,258.63,337.22,258,361.77Z"/><path class="cls-4" d="M393.87,257.58c-1.87-22,19.68-42.62,44.06-41.53,22.45,1,40.81,19.12,40.84,41.25,0,24.58-20,39.45-40.17,40.74C413.28,299.67,392.44,280.32,393.87,257.58Z"/><path class="cls-4" d="M289,545.44V485.87H390.89c0,19.08,0,37.67,0,56.26,0,3.87-2.6,3.57-5.13,3.58l-56.89,0c-10.81,0-21.62,0-32.44,0C294.14,545.76,291.83,545.56,289,545.44Zm80.9-28.12-14.78,13.07,5.5,5.23c5.9-5.65,11.72-11.06,17.28-16.74.79-.8,1-3.53.27-4.24-5.76-5.89-11.79-11.52-17.59-17.08-6.19,4.39-6.27,5-1.71,9.39C362.25,510.17,365.67,513.31,369.94,517.32Zm-62.41-1.43c3.66-3.08,7.11-5.71,10.24-8.68,4.74-4.51,4.5-5.69-.52-8.71l-19.53,19.17,19.42,18.17,5.27-5.81Zm36.09-21-17.75,39.79,7.07,2.61c5.29-11.74,10.08-23,15.45-34C350.75,498.47,349.33,496.39,343.62,494.92Z"/><path class="cls-2" d="M369.94,517.32c-4.27-4-7.69-7.15-11-10.37-4.56-4.39-4.48-5,1.71-9.39,5.8,5.56,11.83,11.19,17.59,17.08.69.71.52,3.44-.27,4.24-5.56,5.68-11.38,11.09-17.28,16.74l-5.5-5.23Z"/><path class="cls-2" d="M307.53,515.89,322.41,530l-5.27,5.81-19.42-18.17,19.53-19.17c5,3,5.26,4.2.52,8.71C314.64,510.18,311.19,512.81,307.53,515.89Z"/><path class="cls-2" d="M343.62,494.92c5.71,1.47,7.13,3.55,4.77,8.38-5.37,11-10.16,22.28-15.45,34l-7.07-2.61Z"/><path class="cls-3" d="M2215.88,325.68a31,31,0,1,1,31-31A31.07,31.07,0,0,1,2215.88,325.68Zm0-50.06a19,19,0,1,0,19,19A19.06,19.06,0,0,0,2215.88,275.62Z"/><g class="cls-5"><path class="cls-3" d="M2220.54,326.45a31.8,31.8,0,1,1,31.79-31.8A31.84,31.84,0,0,1,2220.54,326.45Zm0-60.6a28.8,28.8,0,1,0,28.79,28.8A28.83,28.83,0,0,0,2220.54,265.85Z"/></g><g class="cls-6"><path class="cls-3" d="M2227,326.45a31.8,31.8,0,1,1,31.8-31.8A31.83,31.83,0,0,1,2227,326.45Zm0-60.6a28.8,28.8,0,1,0,28.8,28.8A28.83,28.83,0,0,0,2227,265.85Z"/></g><g class="cls-7"><path class="cls-3" d="M2234.11,326.45a31.8,31.8,0,1,1,31.79-31.8A31.84,31.84,0,0,1,2234.11,326.45Zm0-60.6a28.8,28.8,0,1,0,28.79,28.8A28.83,28.83,0,0,0,2234.11,265.85Z"/></g><path class="cls-3" d="M2209.44,532.84h-51.58L2183,334.38h52.79Zm-38-12h27.44l23.13-174.46h-28.52Z"/><g class="cls-5"><path class="cls-3" d="M2218.4,533.37h-44.54l24.19-198.69h45.7Zm-38.89-5H2214l24.08-188.69h-35.59Z"/></g><g class="cls-6"><path class="cls-3" d="M2227.89,533.37h-44.54l24.19-198.69h45.7Zm-38.89-5h34.48l24.08-188.69H2212Z"/></g><g class="cls-8"><path class="cls-3" d="M2237.6,533.37h-44.54l24.19-198.69H2263Zm-38.89-5h34.49l24.08-188.69h-35.6Z"/></g><circle class="cls-9" cx="2215.88" cy="294.65" r="25.03"/><polygon class="cls-9" points="2188.25 340.38 2228.9 340.38 2204.18 526.84 2164.67 526.84 2188.25 340.38"/></svg>
